<?xml version="1.0" standalone="no"?>
<!DOCTYPE svg PUBLIC "-//W3C//DTD SVG 20010904//EN"
 "http://www.w3.org/TR/2001/REC-SVG-20010904/DTD/svg10.dtd">
<svg version="1.0" xmlns="http://www.w3.org/2000/svg"
 width="1024.000000pt" height="1024.000000pt" viewBox="0 0 1024.000000 1024.000000"
 preserveAspectRatio="xMidYMid meet">
<metadata>
Created by potrace 1.16, written by Peter Selinger 2001-2019
</metadata>
<g transform="translate(0.000000,1024.000000) scale(0.100000,-0.100000)"
fill="#000000" stroke="none">
<path d="M2090 6055 c-58 -18 -124 -75 -152 -129 -16 -30 -21 -61 -22 -116 -1
-65 3 -81 26 -121 53 -90 124 -131 228 -132 79 -1 132 23 184 84 111 130 75
319 -76 395 -62 31 -129 38 -188 19z"/>
<path d="M3058 6051 c-200 -64 -348 -255 -348 -449 l0 -44 318 5 c335 4 340 5
441 56 57 30 137 106 175 169 41 69 76 178 76 238 l0 44 -302 -1 c-265 0 -310
-2 -360 -18z"/>
<path d="M4030 5626 c-123 -27 -190 -100 -190 -208 0 -55 15 -91 57 -130 32
-30 54 -40 173 -74 47 -14 95 -32 108 -40 27 -18 30 -64 4 -87 -42 -38 -204
-6 -261 51 l-25 25 -15 -24 c-9 -13 -31 -41 -50 -62 l-34 -38 23 -17 c134 -97
312 -120 437 -56 78 40 115 89 121 158 9 115 -45 180 -188 222 -124 37 -143
45 -162 66 -45 50 2 84 102 75 57 -5 140 -40 140 -60 0 -9 29 26 69 82 23 33
23 35 5 48 -41 31 -113 62 -169 72 -69 13 -74 13 -145 -3z"/>
<path d="M4566 5621 c-3 -5 -4 -114 -2 -242 5 -275 11 -303 85 -373 112 -104
336 -102 438 3 75 77 78 88 81 364 l4 247 -80 0 -80 0 -4 -223 c-4 -250 -10
-275 -78 -310 -46 -24 -123 -17 -157 14 -37 35 -43 80 -43 309 l0 215 -80 2
c-43 2 -81 -1 -84 -6z"/>
<path d="M5384 5621 c-2 -2 -4 -157 -4 -343 l0 -338 83 -1 c45 0 135 -3 200
-5 169 -6 167 -7 167 77 l0 69 -140 0 -140 0 0 269 0 269 -81 4 c-44 2 -83 1
-85 -1z"/>
<path d="M6010 5622 c-6 -2 -10 -126 -10 -342 l0 -338 73 -5 c39 -2 153 -4
252 -3 l180 1 3 66 c4 82 11 79 -195 79 l-153 0 0 65 0 65 160 0 160 0 0 70 0
70 -160 0 -160 0 0 65 0 65 170 0 170 0 0 73 0 72 -240 0 c-132 0 -245 -1
-250 -3z"/>
<path d="M6928 5615 c-79 -22 -164 -89 -206 -164 -36 -64 -37 -69 -37 -166 0
-87 3 -107 26 -156 35 -73 106 -142 178 -171 85 -35 225 -33 303 4 78 37 145
101 179 173 24 50 29 73 29 137 0 133 -41 217 -143 289 -92 65 -215 86 -329
54z m217 -164 c53 -36 82 -81 90 -140 9 -65 -9 -124 -51 -171 -125 -138 -334
-49 -334 142 0 99 58 180 138 193 20 4 44 8 52 9 28 6 65 -6 105 -33z"/>
<path d="M7600 5286 l0 -343 71 -7 c39 -3 75 -4 80 -1 5 4 9 96 9 212 l0 205
146 -198 c81 -110 148 -203 150 -209 2 -6 39 -10 82 -9 l77 1 0 344 0 344 -75
0 -75 0 -5 -208 -5 -208 -65 93 c-36 51 -104 145 -152 210 l-88 118 -75 0 -75
0 0 -344z"/>
<path d="M1915 5308 c24 -174 129 -334 265 -403 112 -56 105 -56 855 -53 l690
3 -3 50 c-5 67 -46 187 -82 240 -66 97 -189 181 -298 204 -36 7 -270 11 -743
11 l-691 0 7 -52z"/>
<path d="M3394 4652 c-120 -50 -182 -173 -154 -308 10 -50 20 -67 64 -110 52
-53 122 -84 187 -84 80 0 182 68 225 150 26 49 24 159 -3 220 -53 119 -202
180 -319 132z"/>
<path d="M2279 4646 c-125 -35 -248 -132 -306 -242 -35 -66 -63 -159 -63 -211
l0 -33 318 0 c292 0 324 2 377 20 60 21 142 67 173 98 84 84 151 235 152 345
l0 37 -302 -1 c-211 -1 -317 -5 -349 -13z"/>
</g>
</svg>
