<?xml version="1.0" standalone="no"?>
<!DOCTYPE svg PUBLIC "-//W3C//DTD SVG 20010904//EN"
 "http://www.w3.org/TR/2001/REC-SVG-20010904/DTD/svg10.dtd">
<svg version="1.0" xmlns="http://www.w3.org/2000/svg"
 width="640.000000pt" height="640.000000pt" viewBox="0 0 640.000000 640.000000"
 preserveAspectRatio="xMidYMid meet">

<g transform="translate(0.000000,640.000000) scale(0.100000,-0.100000)"
fill="#000000" stroke="none">
<path d="M289 4177 c-61 -17 -122 -67 -148 -120 -27 -55 -28 -146 -2 -203 22
-47 89 -109 139 -125 60 -20 145 -7 199 30 75 51 97 91 101 186 4 77 3 82 -30
130 -60 89 -161 129 -259 102z"/>
<path d="M1211 4174 c-159 -43 -295 -188 -330 -352 -22 -104 -55 -94 302 -90
298 3 315 4 369 26 166 67 280 212 295 375 l6 57 -294 -1 c-224 0 -307 -4
-348 -15z"/>
<path d="M2276 3915 c-96 -37 -145 -111 -132 -200 12 -80 75 -129 211 -165
104 -27 140 -61 110 -106 -14 -21 -23 -24 -80 -24 -55 0 -75 6 -141 40 -42 22
-80 38 -83 35 -4 -2 -18 -26 -31 -54 -27 -58 -22 -69 43 -103 70 -35 139 -51
225 -51 71 0 90 4 139 29 90 46 126 119 102 206 -19 72 -68 110 -187 147 -130
40 -167 74 -126 115 28 29 132 13 245 -38 11 -5 22 8 44 55 34 69 36 65 -55
103 -61 25 -229 32 -284 11z"/>
<path d="M2811 3921 c-10 -7 -12 -50 -9 -222 4 -242 10 -264 80 -336 55 -56
119 -78 223 -77 124 0 207 46 255 140 24 48 25 54 25 274 l0 225 -75 0 -75 0
-5 -210 c-5 -222 -8 -236 -56 -274 -50 -39 -156 -21 -186 32 -9 15 -15 89 -18
237 l-5 215 -70 3 c-38 1 -76 -2 -84 -7z"/>
<path d="M3590 3610 l0 -320 215 0 215 0 0 65 0 64 -132 3 -133 3 -5 250 -5
250 -77 3 -78 3 0 -321z"/>
<path d="M4187 3923 c-4 -3 -7 -147 -7 -320 l0 -313 248 0 c137 0 251 2 253 4
2 2 2 32 1 65 l-4 61 -169 0 -169 0 0 60 0 59 148 3 147 3 3 63 3 62 -151 0
-150 0 0 65 0 65 165 0 165 0 0 65 0 65 -238 0 c-131 0 -242 -3 -245 -7z"/>
<path d="M5053 3912 c-153 -55 -233 -177 -220 -334 7 -85 42 -153 109 -213 62
-56 131 -80 228 -79 92 0 144 14 207 58 167 115 188 354 42 491 -68 63 -125
86 -229 91 -66 4 -97 0 -137 -14z m228 -152 c73 -53 91 -191 35 -265 -40 -52
-82 -75 -139 -75 -58 0 -94 17 -135 65 -39 43 -46 69 -40 144 8 116 98 183
212 159 21 -5 51 -18 67 -28z"/>
<path d="M5685 3918 c-3 -7 -4 -150 -3 -318 l3 -305 73 -3 72 -3 1 158 c1 187
2 210 9 216 3 3 68 -80 145 -184 l140 -188 73 -1 72 0 -2 318 -3 317 -70 0
-70 0 -3 -187 c-1 -104 -6 -188 -10 -188 -4 1 -70 85 -147 188 l-140 187 -68
3 c-48 2 -69 -1 -72 -10z"/>
<path d="M122 3488 c10 -162 148 -326 319 -379 57 -18 101 -19 736 -19 l676 0
-6 58 c-15 162 -129 307 -295 374 l-57 23 -689 3 -688 3 4 -63z"/>
<path d="M2262 2981 c-89 -23 -146 -95 -146 -186 0 -110 81 -189 193 -188 95
0 165 43 129 79 -13 14 -19 13 -49 -5 -93 -57 -209 7 -209 114 0 52 17 84 60
113 29 20 44 23 87 20 29 -3 61 -12 70 -21 15 -13 21 -13 36 -3 25 19 21 32
-15 54 -39 24 -110 34 -156 23z"/>
<path d="M4729 2981 c-92 -18 -150 -90 -150 -186 0 -114 76 -187 195 -187 94
0 161 42 124 78 -13 14 -19 13 -49 -5 -66 -41 -160 -17 -194 48 -34 66 -8 154
56 187 39 20 120 15 147 -9 16 -14 21 -15 37 -3 54 39 -67 96 -166 77z"/>
<path d="M6105 2981 c-48 -12 -74 -29 -90 -61 -36 -71 -1 -117 115 -150 96
-27 122 -57 84 -94 -20 -21 -112 -21 -161 -1 -29 12 -38 13 -45 3 -20 -32 5
-53 82 -68 108 -20 200 27 200 103 0 54 -23 74 -114 102 -91 28 -109 41 -104
77 5 36 63 51 130 33 54 -14 67 -9 68 23 0 25 -109 46 -165 33z"/>
<path d="M2610 2795 l0 -186 32 3 33 3 0 75 0 75 100 0 100 0 3 -77 3 -78 29
0 30 0 0 185 0 185 -30 0 -29 0 -3 -77 -3 -78 -93 2 c-52 0 -96 4 -100 8 -3 3
-7 36 -8 73 l-1 67 -32 3 -31 3 0 -186z"/>
<path d="M3130 2795 l0 -185 30 0 30 0 0 185 0 185 -30 0 -30 0 0 -185z"/>
<path d="M3376 2972 c-2 -4 -4 -86 -3 -182 l2 -175 33 -3 32 -3 0 120 c0 67 4
121 8 121 8 0 48 -46 144 -166 50 -64 63 -75 86 -72 l27 3 0 180 0 180 -32 3
-33 3 0 -120 c0 -67 -3 -121 -8 -121 -4 0 -51 54 -105 120 -76 94 -103 120
-122 120 -13 0 -26 -4 -29 -8z"/>
<path d="M3935 2824 c-39 -86 -76 -170 -83 -186 l-13 -29 33 3 c28 3 36 10 52
46 l19 42 94 0 93 0 22 -45 c19 -40 26 -45 54 -45 l33 0 -82 183 -82 182 -35
3 -35 3 -70 -157z m141 10 c19 -41 32 -80 29 -85 -8 -13 -122 -11 -130 2 -6 9
52 159 62 159 2 0 20 -34 39 -76z"/>
<path d="M5128 2853 c-31 -71 -68 -154 -82 -185 l-26 -58 33 0 c29 0 35 5 52
43 l20 42 95 0 95 0 19 -42 c17 -38 23 -43 52 -43 40 0 45 -20 -56 200 -76
164 -76 165 -111 168 l-34 2 -57 -127z m130 -18 c18 -42 30 -80 27 -86 -4 -5
-34 -9 -67 -8 -61 2 -81 16 -61 42 5 6 20 38 33 70 12 31 25 57 29 57 3 0 21
-34 39 -75z"/>
<path d="M5550 2794 l0 -185 33 3 c31 3 32 4 35 56 l3 52 49 0 c47 0 52 -2 81
-42 17 -24 34 -49 38 -56 5 -8 20 -12 40 -10 l31 3 -35 52 c-19 29 -35 54 -35
57 0 2 16 20 35 39 31 31 35 41 35 85 0 97 -55 132 -210 132 l-100 0 0 -186z
m228 112 c22 -22 22 -91 -1 -113 -12 -12 -38 -19 -86 -21 l-69 -4 -4 71 c-1
39 -1 76 1 82 6 18 139 5 159 -15z"/>
<path d="M1540 2907 c-49 -16 -123 -93 -138 -143 -35 -118 17 -237 124 -289
58 -29 149 -25 211 9 75 42 123 123 123 210 0 48 -37 131 -71 163 -61 56 -165
77 -249 50z"/>
<path d="M480 2899 c-182 -35 -343 -209 -358 -385 l-5 -64 296 0 c262 0 302 2
356 19 165 51 294 199 320 366 5 33 7 63 4 68 -6 10 -558 7 -613 -4z"/>
</g>
</svg>
