<svg width="24" height="24" viewBox="0 0 24 24" fill="none" xmlns="http://www.w3.org/2000/svg">
<path d="M7.25263 18.4944L7.97736 18.917C9.18811 19.623 10.5641 20 12 20C16.4183 20 20 16.4183 20 12C20 7.58172 16.4183 4 12 4C7.58172 4 4 7.58172 4 12C4 13.4363 4.37723 14.8128 5.08368 16.0238L5.50606 16.7478L4.85257 19.1494L7.25263 18.4944ZM2.00418 22L3.35614 17.0315C2.49396 15.5536 2 13.8345 2 12C2 6.47715 6.47715 2 12 2C17.5228 2 22 6.47715 22 12C22 17.5228 17.5228 22 12 22C10.1661 22 8.44753 21.5064 6.96988 20.6447L2.00418 22ZM8.39134 7.30833C8.52522 7.29892 8.65955 7.29748 8.79361 7.30402C8.84777 7.30758 8.90167 7.31384 8.95561 7.32007C9.11487 7.33846 9.29 7.43545 9.34888 7.56894C9.6472 8.24536 9.93666 8.92565 10.2172 9.60963C10.2791 9.76062 10.2418 9.95633 10.124 10.1457C10.0642 10.2428 9.9703 10.379 9.8615 10.5183C9.74841 10.663 9.50501 10.9291 9.50501 10.9291C9.50501 10.9291 9.4064 11.0473 9.44357 11.1944C9.45805 11.25 9.50423 11.331 9.5461 11.3991C9.56929 11.4368 9.59082 11.4705 9.60479 11.4938C9.86071 11.9211 10.2047 12.3543 10.6249 12.7616C10.7453 12.8783 10.8621 12.9974 10.9877 13.108C11.456 13.5209 11.9858 13.8583 12.558 14.1082L12.5631 14.1105C12.6476 14.1469 12.691 14.1668 12.8147 14.2193C12.8771 14.2457 12.9409 14.2685 13.0064 14.2858C13.0301 14.292 13.0544 14.2955 13.0788 14.2972C13.2405 14.3069 13.334 14.2032 13.3739 14.1555C14.0974 13.279 14.1636 13.2218 14.1686 13.2222V13.2238C14.2637 13.1236 14.4132 13.0888 14.5466 13.097C14.6075 13.1007 14.6681 13.1124 14.7235 13.1377C15.2553 13.3803 16.1248 13.7587 16.1248 13.7587L16.7063 14.0201C16.8037 14.0671 16.8926 14.1778 16.8969 14.2854C16.8995 14.3523 16.9067 14.4603 16.8828 14.6579C16.8515 14.9166 16.7728 15.2281 16.6946 15.3913C16.6396 15.5058 16.5684 15.6074 16.4856 15.6934C16.3733 15.81 16.2899 15.8808 16.1549 15.9814C16.0727 16.0426 16.0301 16.0714 16.0301 16.0714C15.8912 16.159 15.8129 16.2028 15.6474 16.2909C15.39 16.428 15.1056 16.5068 14.8143 16.5218C14.6286 16.5313 14.4434 16.5447 14.2579 16.5347C14.2497 16.5342 13.6897 16.4482 13.6897 16.4482C12.2678 16.0742 10.9528 15.3736 9.84936 14.402C9.62375 14.2034 9.41452 13.9885 9.20096 13.7759C8.3119 12.8908 7.63884 11.9364 7.23071 11.0336C7.02945 10.5884 6.90201 10.1116 6.9 9.62098C6.89631 9.01405 7.09501 8.4232 7.46471 7.94186C7.53759 7.84697 7.60676 7.74855 7.72611 7.63586C7.8525 7.51651 7.93294 7.45244 8.01959 7.40811C8.13509 7.34902 8.26195 7.31742 8.39134 7.30833Z" fill="white"/>
</svg>
